<?xml version="1.0" encoding="UTF-8" standalone="no"?>
<!-- Created with Inkscape (http://www.inkscape.org/) -->

<svg
   width="32"
   height="32"
   id="svg10115"
   version="1.0"
   xmlns="http://www.w3.org/2000/svg"
   xmlns:svg="http://www.w3.org/2000/svg"
   xmlns:rdf="http://www.w3.org/1999/02/22-rdf-syntax-ns#"
   xmlns:cc="http://creativecommons.org/ns#"
   xmlns:dc="http://purl.org/dc/elements/1.1/">
  <defs
     id="defs10117" />
  <metadata
     id="metadata10120">
    <rdf:RDF>
      <cc:Work
         rdf:about="">
        <dc:format>image/svg+xml</dc:format>
        <dc:type
           rdf:resource="http://purl.org/dc/dcmitype/StillImage" />
        <dc:subject>
          <rdf:Bag>
            <rdf:li>emblem important</rdf:li>
          </rdf:Bag>
        </dc:subject>
        <dc:creator>
          <cc:Agent>
            <dc:title>Luca Ferretti</dc:title>
          </cc:Agent>
        </dc:creator>
        <cc:license
           rdf:resource="http://creativecommons.org/licenses/LGPL/2.1/" />
      </cc:Work>
      <cc:License
         rdf:about="http://creativecommons.org/licenses/LGPL/2.1/">
        <cc:permits
           rdf:resource="http://web.resource.org/cc/Reproduction" />
        <cc:permits
           rdf:resource="http://web.resource.org/cc/Distribution" />
        <cc:requires
           rdf:resource="http://web.resource.org/cc/Notice" />
        <cc:permits
           rdf:resource="http://web.resource.org/cc/DerivativeWorks" />
        <cc:requires
           rdf:resource="http://web.resource.org/cc/ShareAlike" />
        <cc:requires
           rdf:resource="http://web.resource.org/cc/SourceCode" />
      </cc:License>
    </rdf:RDF>
  </metadata>
  <g
     id="layer1">
    <ellipse
       style="fill:#000000;fill-opacity:1;fill-rule:evenodd;stroke:#ffffff;stroke-width:2.66667;stroke-linecap:butt;stroke-linejoin:miter;stroke-miterlimit:4;stroke-dasharray:none;stroke-opacity:1"
       id="path10123"
       cx="16"
       cy="16.002604"
       rx="14.666667"
       ry="14.661458" />
    <circle
       style="fill:#ffffff;fill-opacity:1;fill-rule:evenodd;stroke:none;stroke-width:0.666667px;stroke-linecap:butt;stroke-linejoin:miter;stroke-opacity:1"
       id="path10998"
       cx="16"
       cy="16.002604"
       r="10.666667" />
    <g
       id="g1"
       transform="matrix(1,0,0,-1,0,31.338542)">
      <circle
         style="fill:#000000;fill-opacity:1;fill-rule:evenodd;stroke:none;stroke-width:0.666667px;stroke-linecap:butt;stroke-linejoin:miter;stroke-opacity:1"
         id="path11873"
         cx="16"
         cy="22.669271"
         r="2" />
      <path
         style="fill:#000000;fill-opacity:1;fill-rule:evenodd;stroke:none;stroke-width:0.666667px;stroke-linecap:butt;stroke-linejoin:miter;stroke-opacity:1"
         d="m 18.666667,10.002604 c 0,2.666667 -1.333334,10 -2.666667,10 -1.333333,0 -2.666667,-7.333333 -2.666667,-10 0,-3.3119998 2,-3.3333331 2.666667,-3.3333331 0.666667,0 2.666667,0.021333 2.666667,3.3333331 z"
         id="path12748" />
    </g>
    <g
       id="g2"
       transform="matrix(0.34874926,0,0,0.34874926,15.630018,15.651813)">
      <path
         transform="translate(0,1.875003)"
         d="m 23.938113,3.1251011 c 4.865407,-0.148269 0.276206,4.640799 4.779399,6.4888839 4.853316,1.991773 4.808647,-4.5808652 8.62949,-0.986009 3.545205,3.33552 -3.086233,3.476847 -1.208788,7.967879 2.023416,4.840209 6.639388,0.161066 6.799185,5.404758 0.148269,4.865407 -4.640799,0.276206 -6.488884,4.779399 -1.991773,4.853316 4.580865,4.808647 0.986009,8.62949 -3.33552,3.545205 -3.476847,-3.086233 -7.967879,-1.208788 -4.840209,2.023416 -0.161066,6.639388 -5.404758,6.799185 -4.865407,0.148269 -0.276206,-4.640799 -4.779399,-6.488884 -4.853316,-1.991773 -4.808647,4.580865 -8.62949,0.986009 -3.5452046,-3.33552 3.086233,-3.476847 1.208788,-7.967879 -2.0234165,-4.840209 -6.6393879,-0.161066 -6.7991849,-5.404758 -0.148269,-4.865407 4.640799,-0.276206 6.4888839,-4.779399 1.991773,-4.853316 -4.5808652,-4.808647 -0.986009,-8.6294904 3.33552,-3.5452042 3.476847,3.0862334 7.967879,1.2087882 4.840209,-2.0234163 0.161066,-6.6393877 5.404758,-6.7991847 z"
         id="path2190"
         style="fill:#000000;fill-opacity:1;fill-rule:evenodd;stroke:#ffffff;stroke-width:8;stroke-linecap:butt;stroke-linejoin:miter;stroke-miterlimit:4;stroke-dasharray:none;stroke-opacity:1" />
      <path
         style="fill:#000000;fill-opacity:1;fill-rule:evenodd;stroke:none;stroke-width:1px;stroke-linecap:butt;stroke-linejoin:miter;stroke-opacity:1"
         id="path1315"
         d="m 23.938113,3.1251011 c 4.865407,-0.148269 0.276206,4.640799 4.779399,6.4888839 4.853316,1.991773 4.808647,-4.5808652 8.62949,-0.986009 3.545205,3.33552 -3.086233,3.476847 -1.208788,7.967879 2.023416,4.840209 6.639388,0.161066 6.799185,5.404758 0.148269,4.865407 -4.640799,0.276206 -6.488884,4.779399 -1.991773,4.853316 4.580865,4.808647 0.986009,8.62949 -3.33552,3.545205 -3.476847,-3.086233 -7.967879,-1.208788 -4.840209,2.023416 -0.161066,6.639388 -5.404758,6.799185 -4.865407,0.148269 -0.276206,-4.640799 -4.779399,-6.488884 -4.853316,-1.991773 -4.808647,4.580865 -8.62949,0.986009 -3.5452046,-3.33552 3.086233,-3.476847 1.208788,-7.967879 -2.0234165,-4.840209 -6.6393879,-0.161066 -6.7991849,-5.404758 -0.148269,-4.865407 4.640799,-0.276206 6.4888839,-4.779399 1.991773,-4.853316 -4.5808652,-4.808647 -0.986009,-8.6294904 3.33552,-3.5452042 3.476847,3.0862334 7.967879,1.2087882 4.840209,-2.0234163 0.161066,-6.6393877 5.404758,-6.7991847 z"
         transform="translate(0,1.875003)" />
      <ellipse
         style="fill:#ffffff;fill-opacity:1;fill-rule:evenodd;stroke:none;stroke-width:1px;stroke-linecap:butt;stroke-linejoin:miter;stroke-opacity:1"
         id="path3065"
         transform="translate(-0.0078125,0.125)"
         cx="24.0625"
         cy="23.9375"
         rx="5.0546875"
         ry="4.9375" />
    </g>
  </g>
</svg>
