<?xml version="1.0" encoding="UTF-8" standalone="no"?>
<!-- Created with Inkscape (http://www.inkscape.org/) -->

<svg
   width="24"
   height="24"
   id="svg8841"
   version="1.1"
   xmlns="http://www.w3.org/2000/svg"
   xmlns:svg="http://www.w3.org/2000/svg"
   xmlns:rdf="http://www.w3.org/1999/02/22-rdf-syntax-ns#"
   xmlns:cc="http://creativecommons.org/ns#"
   xmlns:dc="http://purl.org/dc/elements/1.1/">
  <defs
     id="defs8843" />
  <metadata
     id="metadata8846">
    <rdf:RDF>
      <cc:Work
         rdf:about="">
        <dc:format>image/svg+xml</dc:format>
        <dc:type
           rdf:resource="http://purl.org/dc/dcmitype/StillImage" />
      </cc:Work>
    </rdf:RDF>
  </metadata>
  <g
     id="g4"
     transform="matrix(0.85808581,0,0,0.85808581,1.7029705,1.2637004)">
    <path
       style="display:inline;fill:none;fill-opacity:1;fill-rule:nonzero;stroke:#ffffff;stroke-width:8.45;stroke-linecap:butt;stroke-linejoin:miter;stroke-miterlimit:4;stroke-dasharray:none;stroke-dashoffset:0;stroke-opacity:1;paint-order:markers fill stroke"
       d="m 273.5,332.5 h 33 c 1.108,0 2,0.892 2,2 v 18 c 0,1.108 -0.892,2 -2,2 l -1.72749,0.0218 -3.67713,4.47972 L 296.88047,354.5 H 273.5 c -1.108,0 -2,-0.892 -2,-2 v -18 c 0,-1.108 0.892,-2 2,-2 z"
       id="path4"
       transform="matrix(0.61538462,0,0,0.61538462,-166.46154,-200.92844)" />
    <path
       style="display:inline;fill:#ffffff;fill-opacity:1;fill-rule:nonzero;stroke:#000000;stroke-width:2.925;stroke-linecap:butt;stroke-linejoin:miter;stroke-miterlimit:4;stroke-dasharray:none;stroke-dashoffset:0;stroke-opacity:1;paint-order:markers fill stroke"
       d="m 273.5,332.5 h 33 c 1.108,0 2,0.892 2,2 v 18 c 0,1.108 -0.892,2 -2,2 l -1.72749,0.0218 -3.67713,4.47972 L 296.88047,354.5 H 273.5 c -1.108,0 -2,-0.892 -2,-2 v -18 c 0,-1.108 0.892,-2 2,-2 z"
       id="path8680"
       transform="matrix(0.61538462,0,0,0.61538462,-166.46154,-200.92844)" />
    <rect
       y="333"
       x="272"
       height="21"
       width="9"
       id="rect8676"
       style="display:inline;opacity:1;fill:#000000;fill-opacity:1;fill-rule:nonzero;stroke:none;stroke-width:1;stroke-linecap:butt;stroke-linejoin:miter;stroke-miterlimit:4;stroke-dasharray:none;stroke-dashoffset:0;stroke-opacity:1"
       transform="matrix(0.61538462,0,0,0.61538462,-166.46154,-200.92844)" />
  </g>
</svg>
